<svg xmlns="http://www.w3.org/2000/svg" xmlns:xlink="http://www.w3.org/1999/xlink" width="1277pt" height="57pt" viewBox="0.00 0.00 1277.00 57.00">
<g id="graph0" class="graph" transform="scale(1 1) rotate(0) translate(4 53.39)">
<title>FSM_Identifiers</title>
<polygon fill="white" stroke="none" points="-4,4 -4,-53.39 1273.49,-53.39 1273.49,4 -4,4"/>
<!-- start -->
<g id="node1" class="node">
<title>start</title>
<ellipse fill="black" stroke="black" cx="1.8" cy="-24.69" rx="1.8" ry="1.8"/>
</g>
<!-- q0 -->
<g id="node2" class="node">
<title>q0</title>
<ellipse fill="none" stroke="black" cx="67.6" cy="-24.69" rx="27" ry="18"/>
<text xml:space="preserve" text-anchor="middle" x="67.6" y="-20.49" font-family="Times,serif" font-size="14.00">q0</text>
</g>
<!-- start&#45;&gt;q0 -->
<g id="edge1" class="edge">
<title>start-&gt;q0</title>
<path fill="none" stroke="black" d="M3.91,-24.69C7.21,-24.69 17.46,-24.69 28.73,-24.69"/>
<polygon fill="black" stroke="black" points="28.62,-28.19 38.62,-24.69 28.62,-21.19 28.62,-28.19"/>
</g>
<!-- q1 -->
<g id="node4" class="node">
<title>q1</title>
<ellipse fill="none" stroke="black" cx="163.34" cy="-24.69" rx="20.69" ry="20.69"/>
<text xml:space="preserve" text-anchor="middle" x="163.34" y="-20.49" font-family="Times,serif" font-size="14.00">q1</text>
</g>
<!-- q0&#45;&gt;q1 -->
<g id="edge2" class="edge">
<title>q0-&gt;q1</title>
<path fill="none" stroke="black" d="M94.71,-24.69C106.01,-24.69 119.32,-24.69 131.13,-24.69"/>
<polygon fill="black" stroke="black" points="130.8,-28.19 140.8,-24.69 130.8,-21.19 130.8,-28.19"/>
<text xml:space="preserve" text-anchor="middle" x="118.62" y="-28.89" font-family="Times,serif" font-size="14.00">'_'</text>
</g>
<!-- q3 -->
<g id="node3" class="node">
<title>q3</title>
<ellipse fill="none" stroke="black" cx="1244.8" cy="-24.69" rx="20.69" ry="20.69"/>
<ellipse fill="none" stroke="black" cx="1244.8" cy="-24.69" rx="24.69" ry="24.69"/>
<text xml:space="preserve" text-anchor="middle" x="1244.8" y="-20.49" font-family="Times,serif" font-size="14.00">q3</text>
</g>
<!-- q2 -->
<g id="node5" class="node">
<title>q2</title>
<ellipse fill="none" stroke="black" cx="702.07" cy="-24.69" rx="20.69" ry="20.69"/>
<text xml:space="preserve" text-anchor="middle" x="702.07" y="-20.49" font-family="Times,serif" font-size="14.00">q2</text>
</g>
<!-- q1&#45;&gt;q2 -->
<g id="edge3" class="edge">
<title>q1-&gt;q2</title>
<path fill="none" stroke="black" d="M184.4,-24.69C265.6,-24.69 570.32,-24.69 669.59,-24.69"/>
<polygon fill="black" stroke="black" points="669.39,-28.19 679.39,-24.69 669.39,-21.19 669.39,-28.19"/>
<text xml:space="preserve" text-anchor="middle" x="432.7" y="-28.89" font-family="Times,serif" font-size="14.00">'A','B','C','D','E','F','G','H','I','J','K','L','M','N','O','P','Q','R','S','T','U','V','W','X','Y','Z'</text>
</g>
<!-- q2&#45;&gt;q3 -->
<g id="edge4" class="edge">
<title>q2-&gt;q3</title>
<path fill="none" stroke="black" d="M722.96,-24.69C803.32,-24.69 1104.76,-24.69 1208.48,-24.69"/>
<polygon fill="black" stroke="black" points="1208.33,-28.19 1218.33,-24.69 1208.33,-21.19 1208.33,-28.19"/>
<text xml:space="preserve" text-anchor="middle" x="971.43" y="-28.89" font-family="Times,serif" font-size="14.00">'A','B','C','D','E','F','G','H','I','J','K','L','M','N','O','P','Q','R','S','T','U','V','W','X','Y','Z'</text>
</g>
</g>
</svg>